<?xml version="1.0" encoding="UTF-8" standalone="no"?>
<svg
   xmlns:dc="http://purl.org/dc/elements/1.1/"
   xmlns:cc="http://creativecommons.org/ns#"
   xmlns:rdf="http://www.w3.org/1999/02/22-rdf-syntax-ns#"
   xmlns:svg="http://www.w3.org/2000/svg"
   xmlns="http://www.w3.org/2000/svg"
   viewBox="0 0 461.36401 119.09347"
   height="119.09347"
   width="461.36401"
   xml:space="preserve"
   id="svg2"
   version="1.1"><metadata
     id="metadata8"><rdf:RDF><cc:Work
         rdf:about=""><dc:format>image/svg+xml</dc:format><dc:type
           rdf:resource="http://purl.org/dc/dcmitype/StillImage" /></cc:Work></rdf:RDF></metadata><defs
     id="defs6"><clipPath
       id="clipPath18"
       clipPathUnits="userSpaceOnUse"><path
         id="path16"
         d="M 0,89.32 H 346.023 V 0 H 0 Z" /></clipPath></defs><g
     transform="matrix(1.3333333,0,0,-1.3333333,0,119.09347)"
     id="g10"><g
       id="g12"><g
         clip-path="url(#clipPath18)"
         id="g14"><g
           transform="translate(138.5249,61.6137)"
           id="g20"><path
             id="path22"
             style="fill:#ff7900;fill-opacity:1;fill-rule:nonzero;stroke:none"
             d="m 0,0 c -0.33,0.014 -0.658,0.03 -0.991,0.035 -0.229,0.006 -0.456,0.017 -0.685,0.017 -7.316,-0.033 -16.004,-3.179 -22.27,-9.51 -4.537,-4.767 -7.559,-10.99 -8.274,-17.903 -0.018,-0.173 -0.029,-0.349 -0.043,-0.525 -0.029,-0.324 -0.057,-0.649 -0.075,-0.976 -0.029,-0.574 -0.046,-1.155 -0.046,-1.746 0.019,-10.472 5.3,-19.707 13.338,-25.209 5.475,-3.567 11.814,-5.308 17.367,-5.334 0.284,0 0.565,0.013 0.848,0.021 0.251,0.005 0.498,0.017 0.746,0.025 6.455,0.353 12.373,2.711 17.155,6.455 l -6.679,13.47 c -2.758,-2.812 -6.595,-4.563 -10.845,-4.563 -8.391,0 -15.194,6.803 -15.194,15.194 0,8.39 6.803,15.193 15.194,15.193 4.287,0 8.152,-1.784 10.915,-4.641 l 6.611,13.546 C 12.312,-2.722 6.424,-0.369 0,0" /></g><g
           transform="translate(327.1675,38.163)"
           id="g24"><path
             id="path26"
             style="fill:#ff7900;fill-opacity:1;fill-rule:nonzero;stroke:none"
             d="m 0,0 c -4.932,1.98 -9.191,3.693 -9.191,6.267 0,3.629 3.425,4.15 6.36,4.15 8.293,0 14.62,-5.171 14.62,-5.171 l 6.032,12.062 c 0,0 -7.267,7.367 -20.54,7.367 -13.784,0 -23.045,-7.217 -23.045,-17.957 0,-11.699 10.305,-15.922 18.587,-19.316 5.076,-2.082 9.46,-3.879 9.46,-6.693 0,-3.309 -3.308,-4.48 -6.586,-4.48 -8.842,0 -15.964,7.05 -15.964,7.05 l -7.572,-11.619 c 0,0 9.029,-9.361 23.65,-9.361 13.569,0 23.044,7.525 23.044,18.297 C 18.855,-7.577 7.958,-3.198 0,0" /></g><g
           transform="translate(9.1812,89.3203)"
           id="g28"><path
             id="path30"
             style="fill:#ff7900;fill-opacity:1;fill-rule:nonzero;stroke:none"
             d="m 0,0 -8.926,-13.503 c -0.724,-1.252 0.179,-2.82 1.627,-2.82 h 6.174 v -71.184 h 17.91 V 0 Z" /></g><g
           transform="translate(175.7319,31.2861)"
           id="g32"><path
             id="path34"
             style="fill:#ff7900;fill-opacity:1;fill-rule:nonzero;stroke:none"
             d="m 0,0 c 0,-7.794 6.315,-14.119 14.12,-14.119 6.704,0 12.312,4.676 13.749,10.942 H 46.326 V -29.469 H 28.419 v 2.899 c -4.476,-2.558 -9.663,-4.037 -15.189,-4.037 -16.908,0 -30.608,13.7 -30.608,30.607 0,16.897 13.7,30.608 30.608,30.608 5.526,0 10.713,-1.479 15.189,-4.048 v 2.909 H 46.326 V 3.178 H 27.869 C 26.432,9.442 20.824,14.11 14.12,14.11 6.315,14.11 0,7.795 0,0" /></g><g
           transform="translate(264.4546,61.8891)"
           id="g36"><path
             id="path38"
             style="fill:#ff7900;fill-opacity:1;fill-rule:nonzero;stroke:none"
             d="m 0,0 c -5.528,0 -10.711,-1.475 -15.188,-4.039 v 31.422 h -17.911 v -54.808 h 21.089 v 11.653 L 13.683,-30.605 -12.01,-45.439 v 11.655 h -21.089 v -26.293 h 17.911 v 2.908 c 4.477,-2.566 9.66,-4.04 15.188,-4.04 16.903,0 30.605,13.703 30.605,30.604 C 30.605,-13.702 16.903,0 0,0" /></g><g
           transform="translate(78.1465,58.7089)"
           id="g40"><path
             id="path42"
             style="fill:#ff7900;fill-opacity:1;fill-rule:nonzero;stroke:none"
             d="M 0,0 18.29,30.563 H -42.171 V 13.344 h 32.138 L -22.097,-8.848 c -0.798,-1.379 0.199,-3.105 1.791,-3.105 h 7.93 c 0.643,0 1.275,-0.049 1.903,-0.124 7.945,-0.637 14.197,-7.272 14.197,-15.381 0,-1.133 -0.13,-2.231 -0.361,-3.296 -0.044,-0.22 -0.111,-0.43 -0.166,-0.643 -0.059,-0.225 -0.105,-0.452 -0.174,-0.671 -0.427,-1.411 -1.061,-2.723 -1.873,-3.918 -0.028,-0.043 -0.054,-0.087 -0.083,-0.132 -0.104,-0.15 -0.217,-0.292 -0.327,-0.437 -2.81,-3.841 -7.241,-6.344 -12.459,-6.344 -11.148,0 -18.228,12.842 -18.228,12.842 l -14.652,-9.006 c 5.118,-10.981 16.224,-19.646 30.821,-19.646 18.841,0 34.189,11.909 34.189,31.625 C 20.411,-14.107 11.792,-2.995 0,0" /></g></g></g></g></svg>